<svg width="188" height="86" viewBox="0 0 188 86" fill="none" xmlns="http://www.w3.org/2000/svg">
<path d="M183.467 44.4277C179.658 34.1733 179.081 23.3634 175.221 13.1813C174.567 11.4547 173.963 5.57238 172.196 4.33215M172.196 4.33215C169.9 2.72301 164.146 6.57164 162.771 7.43448C155.84 11.785 143.843 19.4744 136.975 24.9568M172.196 4.33215C165.685 31.9596 130.252 62.6533 101.332 53.6695M101.332 53.6695C93.6756 51.291 86.4756 46.1315 80.3897 37.3977C68.8836 20.8838 94.3078 11.2983 105.305 26.2828C111.375 34.5565 106.99 45.6113 101.332 53.6695ZM101.332 53.6695C99.7071 55.984 97.9771 58.0513 96.3598 59.7345C76.3084 80.6027 35.7156 87.3584 5.0095 77.4933" stroke="white" stroke-width="7.98395" stroke-miterlimit="1.5" stroke-linecap="round" stroke-linejoin="round"/>
</svg>
