<svg width="102" height="121" viewBox="0 0 102 121" fill="none" xmlns="http://www.w3.org/2000/svg">
<path fill-rule="evenodd" clip-rule="evenodd" d="M79.8695 33.6289C81.5314 29.6019 84.6928 23.8513 83.6779 16.4078C82.6368 8.7704 73.6016 3.80466 65.8775 5.60543C57.9272 7.4586 53.7643 13.986 49.8378 21.653C39.4205 41.9917 23.8547 70.3509 17.0839 87.089C16.7122 88.0078 18.7749 102.1 19.8383 109.547C20.2528 112.449 20.44 116.066 23.2492 117.331C26.0421 118.588 29.1115 116.548 31.5709 114.739C37.1546 110.632 42.1781 105.637 47.2155 100.767C49.1904 98.8581 70.112 55.0051 79.8695 33.6289V33.6289Z" stroke="white" stroke-width="6.13079" stroke-miterlimit="1.5" stroke-linecap="round" stroke-linejoin="round"/>
<path fill-rule="evenodd" clip-rule="evenodd" d="M51.8735 16.1661C50.8255 17.8607 49.8449 19.6772 48.8788 21.5633C47.125 24.9863 45.225 28.6376 43.2458 32.4214C43.5196 32.4733 43.791 32.5249 44.0611 32.575C54.0735 34.4261 64.7565 39.8176 72.5863 46.9917C74.9166 42.01 77.0579 37.3855 78.8299 33.5043C79.0119 33.0637 79.2117 32.6026 79.422 32.1207C72.4333 23.8154 62.6002 17.1228 51.8735 16.1661V16.1661Z" stroke="white" stroke-width="6.13079" stroke-miterlimit="1.5" stroke-linecap="round" stroke-linejoin="round"/>
<path d="M18.5045 87.3477C19.3236 86.7071 21.1553 85.9805 22.1201 85.6639C27.2403 83.9839 29.4957 89.483 30.0493 93.8277C31.1024 92.3853 32.4728 90.9404 34.0459 90.198C38.6656 88.0175 41.2792 91.9634 40.7375 96.5083C44.1367 94.2384 49.9542 94.4159 48.6577 100.367" stroke="white" stroke-width="6.13079" stroke-miterlimit="1.5" stroke-linecap="round" stroke-linejoin="round"/>
<path d="M21.1664 105.086C24.1801 103.95 27.5568 104 30.602 104.986C33.7748 106.013 36.5878 108.057 38.2555 110.832" stroke="white" stroke-width="6.13079" stroke-miterlimit="1.5" stroke-linecap="round" stroke-linejoin="round"/>
<path d="M28.9521 93.6575C31.3956 87.2752 35.6502 77.1168 38.9704 70.1469C44.2663 59.0302 50.1421 46.3655 55.8502 35.4598" stroke="white" stroke-width="6.13079" stroke-miterlimit="1.5" stroke-linecap="round" stroke-linejoin="round"/>
<path d="M39.6618 96.8995C48.6373 79.4002 56.6353 58.7029 66.2681 41.5522" stroke="white" stroke-width="6.13079" stroke-miterlimit="1.5" stroke-linecap="round" stroke-linejoin="round"/>
</svg>
